<?xml version="1.0" encoding="utf-8"?>
<!-- Generator: Adobe Illustrator 19.0.1, SVG Export Plug-In . SVG Version: 6.00 Build 0)  -->
<svg version="1.1" id="Calque_1" xmlns="http://www.w3.org/2000/svg" xmlns:xlink="http://www.w3.org/1999/xlink" x="0px" y="0px"
	 viewBox="0 0 432 306" style="enable-background:new 0 0 432 306;" xml:space="preserve">
<style type="text/css">
	.st0{fill:#B6B6B6;}
	.st1{fill:#353535;}
	.st2{fill:none;}
	.st3{font-family:'SquadaOne-Regular';}
	.st4{font-size:82.4432px;}
	.st5{fill:#FFFFFF;}
</style>
<g id="logo_fond_blanc_x2F_clair_1_">
	<polygon class="st0" points="282.7,54.2 295.9,44.9 325.6,86.7 288.4,117.6 280.1,107.7 	"/>
	<polygon class="st0" points="131.3,54.2 118.2,44.9 88.4,86.7 125.6,117.6 133.9,107.7 	"/>
	<g>
		<polygon class="st1" points="131.5,55.1 131.3,54.2 127.5,51.7 112.3,94.7 131.3,110.8 134.3,107.2 117.9,93.2 		"/>
		<polygon class="st1" points="288.6,50 284.9,52.7 295.6,93.5 279.5,106.9 282.8,110.8 301.7,94.7 		"/>
		<polygon class="st0" points="284.9,52.7 283.2,46 271.6,37.3 206,67.3 145.3,37.7 134.9,45.5 131.5,55.1 117.9,93.2 134.3,107.2 
			206.1,168.4 279.5,106.9 295.6,93.5 		"/>
	</g>
	<polygon class="st1" points="134.9,45.5 206.1,78.9 283.2,46 271.6,37.3 206,67.3 145.3,37.7 	"/>
	<g>
		<rect x="75.7" y="193.5" class="st2" width="261.9" height="60.4"/>
		<text transform="matrix(1 0 0 1 84.2018 246.8779)"><tspan x="0" y="0" class="st0 st3 st4">SUD</tspan><tspan x="116.2" y="0" class="st1 st3 st4">WEB</tspan></text>
	</g>
	<path class="st1" d="M153.6,100.7l31-0.1c0,0,5.1-0.8,7.6,4.1c2.5,4.9,5.5,10.5,5.5,10.5l8.4-15.4l8.1,15.7l5.5-10.7
		c0,0,2.1-4.2,7.9-4.4c5.8-0.1,31.4,0.1,31.4,0.1s-2.5,7.3-8.3,7.4c-5.8,0.1-15.2,0.2-18.7,0.3c-3.4,0-5.2-0.5-9.1,7.3
		c-4.4,8.9-8.6,16.1-8.6,16.1l-8.3-16.8l-8.1,17c0,0-5.6-10.5-9-17c-3.4-6.5-4.6-6.7-10.7-6.7c-9.8,0-17,0.1-18.4,0.1
		C156.9,108.3,153.9,105.6,153.6,100.7z"/>
	<path class="st5" d="M149,92.8l33.7-0.2c0,0,5.5-0.9,8.2,4.4c2.7,5.3,6,11.5,6,11.5l9.2-16.8l8.9,17.1l6-11.6c0,0,2.3-4.6,8.6-4.7
		c6.3-0.2,34.2,0.2,34.2,0.2s-0.6,7.9-6.8,8.1c-6.3,0.2-18.7,0.3-22.6,0.3c-3.7,0-5.7-0.5-9.9,7.9c-4.8,9.7-9.3,17.6-9.3,17.6
		l-9-18.3l-8.9,18.5c0,0-6.1-11.4-9.8-18.5s-5-7.3-11.6-7.3c-10.7,0-18.5,0.1-20,0.2C152.6,101.1,149.3,98.2,149,92.8z"/>
</g>
</svg>
