<?xml version="1.0"?>
<svg width="1032.104" height="709.461" xmlns="http://www.w3.org/2000/svg">
 <metadata>Adobe Illustrator CS42011-02-07T09:53:35+01:002011-02-07T09:53:35+01:002011-02-07T09:53:35+01:00256180JPEG/9j/4AAQSkZJRgABAgEASABIAAD/7QAsUGhvdG9zaG9wIDMuMAA4QklNA+0AAAAAABAASAAAAAEA
AQBIAAAAAQAB/+4ADkFkb2JlAGTAAAAAAf/bAIQABgQEBAUEBgUFBgkGBQYJCwgGBggLDAoKCwoK
DBAMDAwMDAwQDA4PEA8ODBMTFBQTExwbGxscHx8fHx8fHx8fHwEHBwcNDA0YEBAYGhURFRofHx8f
Hx8fHx8fHx8fHx8fHx8fHx8fHx8fHx8fHx8fHx8fHx8fHx8fHx8fHx8fHx8f/8AAEQgAtAEAAwER
AAIRAQMRAf/EAaIAAAAHAQEBAQEAAAAAAAAAAAQFAwIGAQAHCAkKCwEAAgIDAQEBAQEAAAAAAAAA
AQACAwQFBgcICQoLEAACAQMDAgQCBgcDBAIGAnMBAgMRBAAFIRIxQVEGE2EicYEUMpGhBxWxQiPB
UtHhMxZi8CRygvElQzRTkqKyY3PCNUQnk6OzNhdUZHTD0uIIJoMJChgZhJRFRqS0VtNVKBry4/PE
1OT0ZXWFlaW1xdXl9WZ2hpamtsbW5vY3R1dnd4eXp7fH1+f3OEhYaHiImKi4yNjo+Ck5SVlpeYmZ
qbnJ2en5KjpKWmp6ipqqusra6voRAAICAQIDBQUEBQYECAMDbQEAAhEDBCESMUEFURNhIgZxgZEy
obHwFMHR4SNCFVJicvEzJDRDghaSUyWiY7LCB3PSNeJEgxdUkwgJChgZJjZFGidkdFU38qOzwygp
0+PzhJSktMTU5PRldYWVpbXF1eX1RlZmdoaWprbG1ub2R1dnd4eXp7fH1+f3OEhYaHiImKi4yNjo
+DlJWWl5iZmpucnZ6fkqOkpaanqKmqq6ytrq+v/aAAwDAQACEQMRAD8A9U4q7FXYq7FXYq7FXYq7
FXksmq3cupyX6ysJ2kLo4JqBXYD2A2pnnWbVTOU5AfVb2UdPEYxCtqekaBq66np6zGgmT4JlHZh3
+RztezdaNRi4v4hsXl9Zp/CnXTomWbBxXYq7FXYq7FXYq7FXYq7FXYq7FXYq7FXYq7FXYq7FXYq7
FXYq7FXYq7FXYq7FXYq7FXYq7FXYq8VgOeZF7qTJ/KGpG01NEY0huaRP4cj9g/ftmz7G1XhZwD9M
9v1Or7RwceO+sd3oed08y7FXYq7FXYq7FXYq7FXYq7FXYq7FXYq7FXYq7FWP+ePO2j+TtCfVtT5O
vIR29vHT1JZG6KtSB0BJPYYCac3s/QZNVk4IfE9wWeQ/PWkedNDGq6aHi4OYbm2lpzikUA0NNiCC
CCP11xBtl2j2fPS5OCfvB7wyPC4DsVdirsVdirsVdirsVdirsVdirsVeJQnsfuzzOQe7KPhYihBo
RuDld0WmQeq6bd/W7C3ue8qAt/rftfjnpGkzeLijPvDx+fHwTMe4onMhqaZlVSzEKqirMdgAMVAe
ceaPz+/L/Q3eCC4fV7pagpYgPGCPGZiqU/1eWQMw77SezmpzCyOAf0v1c/nTz2//AOcptXdz+j9C
t4Ur8P1iZ5TT34CLI+I7zH7IwH1ZCfcK/WoW3/OUnmRZK3Oi2csfdY3ljb72Mn6sfEZS9kcVbTl9
n7GbeWv+ckvJepSLDq0E+jTN/uyT9/BU9vUQBx9KAZITDqdV7LajGLgRMfI/L9r1WyvrK+tY7uyn
jubWYcop4mDoynurLUHJvOZMcoSMZCiO9WxYOxV2KuxV2KuxV2KuxV81fm7d33nr827LyhYy0trJ
1s0PVVkcCS5lI/yFFD/qZVLc0992LCOj0Us8hvLf4coj4/pTD/nFu+li1PzBpT7cooZ+B7NE7Rt/
ycFccbR7W4wYY5jvI+e/6H0LlrxDsVdirsVdiqT+Z/NmieWbAXuqzGNHbhDGg5SSNStFX+J2yvJl
jAWXK0miyaiXDAfsYG3/ADkDoBkIj0y6aOuzM0atT/VBb9eYZ7Rj3F3Q9mstbyj9rM/Kvnzy55mQ
jT5yt0o5SWcwCSgeNKkMPdScycOphk5c3Vazs3Lp/rG3eOTIcvcB2KuxV2KvFZlMd5Oh6pIynt0Y
jPOM0amR5vcwNxB8kTCcxiwk9D8lzGTRQp/3VK6D6aN/xtnbdgT4tPX82RH6f0vNdqRrLfeE+zdO
ufL/AOc/5naz5m8xTeVdEeQaRBMLT0Ya87y4DcDWm7Lz+FF6H7XhSmUr2fQ+w+ycenxDNk+si9/4
R/ZzPwZl5C/5xu0i3tYr3zczXl64DHTYnKQR1H2XdCGdh34sB8+uSEO91XaPtRORMcHpj/O6n9T1
jTPKPlbSowmnaRZ2oGxMUEasf9Zqcj9JydB5rLrc2Q3Ocj8SibnRNGuozFc2FtPGeqSQo6/cwOGm
uOfJE2JEfFg3mf8AIT8vdbjdrezOkXh+zPYngle1YTWOn+qAffIGAdxpPaLVYjueOPdL9fN5E0f5
ifkrrysGN75fuX3py+q3A7gjf0ZuP+bLkN4vTg6XtXH/ADcg/wBMP1x/GxfS+i6pDq2kWOqQI8cN
9BHcxpIKOqyoHAYeO+XB4DPhOOcoHnEkfJGYtTsVdirsVdirsVWTzRwQSTynjHEpd2PZVFScUxiS
aHV82/8AOPcE2ufmZq3mG5Xk8cM9yz9aT3coH4q0mVQ5ve+0shh0kMQ7wPhEf2K//OP5K/mz5iiX
4Y/qt2eI2Hw3kIH3VxhzYe0n+JYz/Sj/ALkvo7LXhHYq7FXYq7FXkn/ORGjXlxoem6vCC0OmyyJc
qOy3PAK59g0YH05h6yFgHuem9mc8Y5JQPOYFfC/1vB47j3zVyg9oYo+y1G4tZ47i2laGeIho5UJV
lI7gjK6INhqnjEhRFgvcvy5/OCDU2i0rzA6w37UW3vdljmPQK/ZXPbsfbvtNNrOL0z597xvanYZx
3PFvHqO79j1LNg847FXYq8c1uP0de1CPoBcSED2LEj8Dnn+vjw5pj+kXtdLK8MT/AEQ1CcwCyk9B
8ig/oqY129c0H+wXOw9nR+4l/X/QHnO1v7wf1f0lP7n1fq8vo/3vBvT6fapt19837rY1Yvk+NPys
1bTdH/MbSL/W29O0gncXEkoPwO8bojvXpwkYEntlETu+qdr4Z5dLOOP6iNvmP0Ps2KWKaJJYnWSK
QBkkQhlZTuCCNiMvfKiCDR5rsUOxV2KrZIo5UMcqB0b7SMAQfmDikEjcLgKbDpihb60XqelzX1aV
9Oo5U8adcU8Jq12KELqWq6ZplsbrUryCxtQQpnuZEhjDN0HJyoqcWzFhnkPDAGR7gLVbW6tbu3ju
bWZLi3lHKKaJg6Mp7qykgjFjOBiakKIVcWK2WWKKNpJXWONBVnYhVA8STikAk0GKecvNnl4eUtfF
tqtpLdx6ddskMdxEZC6wNQAK3KtciTs7LQ6PL4+O4S4eOPQ97zX/AJxWtAtj5iu6fFJLbRA9wI1k
b/mZkcbv/a+fqxx8pH7v1JN/zjk31v8AMjXtQX+7eznOwNP311E46/6uCHNyvaccOkxx/pD7Il9I
Za8G7FXYq7FXYqo3lna3tpNaXcSzW1wjRzROKqyMKEHARbOE5QkJRNEPlz8zvy11LydqLXECvPoF
w/8Aot11MZPSKU9mHY/tfOoGvzYOH3PonZPasNVCjtkHMd/mPxsw2K498xZQdsYoqO4ymUGsxez/
AJW/m6IxDofmKYmMkJZ6i5rxr0SZj+z4N277bjO0uqr0y+bynbHYl3kxD3x/SP1Pas2byLsVeU+d
oPR8z3RpRZQki/SgB/EHOJ7Yhw6iXnR+x67syXFgj5X96XQHNOXLk9L8mRFNCjb/AH67v+PH/jXO
27Chw6YHvJP6P0PLdpyvMfIBPM3Dr3g/5qf84+3moajc675TKGW5Yy3OkuRHWRt2aBzRfiO5ViPY
9srlDuey7I9pIwgMefpyl+v9byiHVfzO8hzfVxNqOigMaQShxAzeISQNE/TqAchuHpJYdHrBdQye
fX7N2a6B/wA5N+brTjHrFjbapEPtSJW2mPzZeUf/ACTwjIXU6j2UwS3xylD7R+v7Xo/l/wD5yM8g
alxjvzPpE52P1hPUiqfCSLn97KMmJh0Op9mNTj3jUx5c/kXpGmatpWq2wutMvIb22Owmt5FlSvhV
Sd8nbosuGeM8MwYnz2ReLU4kAEk0A3JOKvlf8t7jUPN355JrHqvT6xPfyOCQVt0BEcfb4aFI6eGU
x3L6N2pGOm7O8Ougj8ep+8vqjLnzl4j/AM5S3vDy/odjX+/u5J+Pj6MfGvX/AIuyvI9d7I47yzl3
RA+Z/YzT8kLFrL8rtDjevKWOWc18JpnkX/hWGShydT2/k49ZM91D5ABU/NL8ztO8j6QshVbnV7oE
WFkTQGnWSSm4jX8TsO5DKVI7I7Jlq51ygOZ/QPN4Jpnlz80/zavXv7m4ZtPVzS6umaKzjPdII1Bq
R/kr/rHK6Mns8uq0fZseED1dw3kfef1/BOfMP/ONmp6PoF/q36bgn/R9tLdSw+g6clhjaRlVuTbn
jQbYTBxNN7Uwy5Yw4COIgc+80r/kRrQ03yN59uSxH1G2juEr05tDOFA9yyAYwOxYe0ODxNRgH841
9sU1/wCcV9NIj8wamy7Mbe2ib5B3kH4phxuP7XZd8cPefur9L3zLHi3Yq7FXYq7FXYqoX9hZahZy
2V9AlzaTrwmgkUMjKexBwEWzx5JQkJRNSD5z/Mv8kNU0F5dU8uI99o27yWwq89uOp26yIPHqO/jm
Jkwdz3XZXb8M1Qy+nJ39D+ovLorn3zElB6MxRcVx75TKDWYvafyh/NgQmHy9r8/+jmiafeyH7B6C
KRj+z/KT06dOmZptRXpk8n232Nd5cQ3/AIh+kfpe4ZsXj3nv5l2hS/s7sDaWMxE+8bV3/wCDzlva
DFU4y7xXy/tej7EyXCUe438/7GLwEkgDr4ZzhDt5PYNLtfqmnW1tShijVW/1qfF+OeiaTD4eKMO4
PF58nHMy7yisyGl2KrJ4ILiJoZ41lhcUeNwGUjwIOxxTGRibGxYTrv5KfltrHJpNIjs5m6TWRNuR
78E/dn6UyJgHb6ft7V4uU+If0t/2/a838w/84tyqGk8u6wHP7NtfpxNP+M0QP/JvIHG77Te1o5ZY
fGP6j+t5jqPl38xvy+1AXUsV3pMgPFL63Y+i/wDk+rGSjV/lb7sjRD0GLU6XWx4QYz8jz+R3+L1P
8vP+ckC8kWneckVeVFTWIVoK/wDF8Sig/wBZP+B75OM+953tP2XoGen/ANKf0H9B+b1vz1q8dn5D
1vU4JFZV0+d7eVCCpZ4iI2BGxBLDJk7PM9n4TLUwgR/GL+e7xz/nFjSFa617WGHxRxw2kR9pCZJP
+TaZXjD1Ptdm9OPH7z+gfeX0JlrxD5o/5yf1dbjzXpmlq1RYWhkceD3D7j/gYlOVZDu9/wCyeHhw
yn/Ol939pe7+Ro4rLyFoKuwSODTLUyP0UUgUs36zlg5PG9oEz1OTznL73zjZ217+bv5tSvM7LphY
yORUGLT4GoiL4M/ID/WYnKvqL3k5R7M0Qr6/vmfx8g+p7Cws9PsoLGyhW3tLZBHBCgoqoooAMufO
cmSU5GUjcil/nGD6x5R1u348vW0+6j49K8oWFPxwHk36KXDnge6cfvfH+geY103yb5n0xXKzaybG
JFB6pDJJI5+4cf8AZZQDs+n6nS+JqMU+kOI/MAfj3PpH8gNDOl/ltZSuvGbU5Jb2Qd6OeEf3xxqc
tgNng/aPUeJq5DpACP6/tL0bJuidirsVdirsVdirsVdirzjz7+R/lnzK0l7Y00jV3qzTwqDDK3Ws
sQoKn+ZaHua5VPEC77s7t/Np6jL1w7jzHuP4+DwXzZ+W/nLym7NqVkZLIH4dQt6y25HuwFU+TgZi
TwkPZaPtTBqfol6v5p2P7fgx+K598x5Qc8xe6/k5+bSuIvLfmC4owomm30p69hBIx/4Qn5eGZWnz
/wAMnju3OxueXEP6w/SP0vU/NmjHVdHkhjFbiI+rb+7L+z/shUYO0tL42IgfUNw892fqfCygn6Ts
WC+TtLkvNbjSRCI7U+pOCKUKHZT82zluy9KcmcAjaO5+H7XoO0dQIYjXOWwep53DyTsVdirsVdir
sVU7i3t7mB4LiJJoJAVkikUMjKeoZTUEYsoyMTYNF85/nl+TenaFZv5o8vJ6Gnh1XULDcrEZG4rJ
ET0QuQpXsTttsKpxrd7rsDtyWaXg5d5dD310P60l8tecr2f8k/Nug3MvMaf9TNgXNSIrm6VZIx7L
xqPngB2cvVaGI7QxZQPq4r94jsXqH/OM9kIPy/uLinxXWoTPX/JSONAPvU5PHyed9qsl6oDugPvL
1okAEk0A3JOTeafEv5ieYx5j866vrCNyguJytsf+KIgI4j7VRAcx5Gy+t9maXwNPDH1A3953P2vp
vzjenTPySupbY7DR4YI2BqeM0aQ1B+T9cuPJ8+0WPxO0AD/qhPyJLC/+cWdMhXStc1SgM0s8VqD3
CxIXP/BGX8Mjjdt7XZTxwh0AJ+f9j3PLHj1ssaSxvFIOSOCrr4gihGKQaNh8PWvlXUbnzevleNa3
xvTYNtXi6yGN2PstCT7Zj1vT67PWQjg8Y/Tw8X2W+3LCxt7CwtrG2XhbWkSQQJ4JGoVR9wzIfJMm
QzkZHmTfzV8WDsVdirsVdirsVdirsVdirmUMCrCoOxB6EYqwXzL+S3kHXS0psf0ddtubixIhJPvH
Roj7njX3yuWKJdxpe3dTh24uKPdLf7ef2vNtX/5xu8wQSFtH1S3u4ey3IeCQe3wiVT89sxpaU9Hf
4fanER+8iYny3/U9u8qafquneXNPsdWuVu9RtoVjuLhSSGK9N2ALUFBUjfrmXAEAAvI6zJCeWUoD
hiTsEzSGFGd0RVaQ1kYAAsR3JHXEQAJIHNxzInYnkuySEJq+oppmk3upPG0qWUEtw0UYq7iJC5VR
4njQYltw4vEnGHLiIHzeW+T/APnI/wAsa1qIsdXtG0NpDSC5kmEsBPhI/GP06+JFPE5ATei1vsvm
xR4oHxPKqPw529cR0dFdGDIwDKymoIO4IIybzJFN4odirsVeNf8AORfnzTLTy3L5Utplm1TUGjN3
EhqYIEYS1enRnKrRfCp8K1zPR6r2Z7OnLKM5FQjdeZ5fY838veUbyD8j/NWvzKyLfS2a2ikH4ora
5UO49i0pH+xyIGzvtTrYntHFiH8IlfvMf2fa9b/5xumjk/LdUQ1aG9nSQeDEK9P+BcZOHJ5n2oiR
q/fEIv8APXzvH5b8mT2kEnHVNYDWtqoPxLGRSaXx+FDxB/mIxmaDX7P6A59QJH6Ibn9AfO2q+T20
38utH8wTrxuNXvJxGCN/q8aARnfpVw59xTKyNnucOt8TVTxDlCI+Z5/ofRPmKzfVfyEMdtVi+h21
wgHUiGGOYinjROmWH6XhtNPw+0rP+qyHzJDD/wDnFrWbY2Ot6KzAXKSx3kaftMjL6bkeyFVr/rYM
Zdp7XYDxQydK4f0/j3Pd8seNSLzr5u03yn5dutZvjVYRxt4K0aaZh8Ea/M9fAVOAmnM0Ginqcoxx
68/Id75B0rzTq9h5ytPOFyGa4e9a8lkoQstXrOq+xDFdumUXvb6fm0kJ4DgHLh4fd3Pte2uILm3i
ubdxJBOiyRSLuGRxyVh8wcyHyaUTEkHmFwkjLsgYF1oWUEVFelRiijzXYodirsVSfzF5p0zQ4gbg
mS4cVitk+0fc/wAq++YWs10MA33l3OZpNDPOduXe8/1L8ydduWIt2SziPRYwGanuzV/Cmc7m7Yzz
+n0jy/W9Bh7HxR5+opFceZdYmJ9W+nf2Mj0+6uYMtRllzlL5lzoaTHHlEfJBSapckkmZyT1JY/1y
FyPUtwwx7lMavdpXhcSLXrR2H6jkwZDkSnwYnmArR+btfgP7rUrlfb1XI+4mmXw1OYcpS+bXLQ4Z
c4R+SPtvzP8ANluRW7WdR+zLGh/EBW/HMqHaWePW/e48+x9PL+GvcWSeXPzZ1K/1O10+405JnuZF
j525ZSoY0LcW51oNzuM2Om7UnOQiY8+512r7EhCBnGVUOr03N2827FXYq4gEEEVB2IOKvCPzC/5x
vF1dTal5QmjgMpLvpM1VjDHc+jJvxHgrCg8QNsrlDuey7N9qOECGcX/SH6R+l55Y61+b/wCWknoP
Hd2Vmjb21zH61mx78G+KPfxjYZCyHd5MGh14v0yl3jaX6/mGaaT/AM5T3yRhdX0GOaT9qa0maIf8
i5Fl/wCJ5IZHVZvZGJPoyEe8X9or7kzn/wCcp9IWMm30C4kk7LJOka/8EEf9WHxHHj7IzvfIPkw/
Wvz6/MnzPIdO0G3+oetssWnxvNdsPASfE30oqnImZLtMHs7pNOOPIeKv520fl+u0x8hf84969q14
uqecmezs2b1JLMvyu5yTU+owJ9ME9STy+XXCId7R2j7S4sceDT+qXf8Awj3d/wBz3bzD5Ws9S8nX
vlq2jS2tprRrW1RRRIyFpFsOysAcsI2eO02rljzxzHciVnz73zB5E/MrzJ+Wl5qelS2Czq8nG5sb
gtG0U8dV5BhX6fHbKRKn0LtDsrFr4xmJV3EdQURomj+cvzg86C91JmFijAXl2i8YLaBTX0Ya1HI9
FG5r8TdzhAMi16jPg7M0/DD6ug6yPefx5B6z/wA5A+VUf8s7ddNgCQaDNC6wxjZLYIYSAPBeSk+w
ycxs837N6ytWeM75AfnzeVaX+Y3nbzF5R078t9FtK3Eg+qy3kbH1JLblsjbARoqmjtXdR86w4iRT
0ebszT4M8tXkO3Ou4/pPcO9T8yeSfO/5UeYLXWdOlaa2jCmLU4kJiLEASQzrvQE1AB+0Nxv0SDFO
l1+n7SxHHMUf5vXyIZWn/OVGpiyCP5ehN9xoZxcuIuXj6RjLU9vU+nD4jrT7IQ4v7w8Pu3+d/oY3
Yad+Y35y+YI7i+cxaTAxDXAQpaWyE/EsKk/HIfmW6cjTBvJz8mXS9l4qj9Z6fxS9/cPs7npf5w/l
Pay/l9Yw+XbU+t5aVjBCorJLbsKz9AOTlh6nua03OTlHZ0HYnbEhqpHKdsv2Hp8OnyeaeWPz7816
L5STy5a2sdzdxD0dOv3LM8UZ2VPSoRIVrRN6DYUOQEzT0Gr9ncOXP4pNRO8h3/Hp5vXvyQ8h6voW
n3mva/JI+u66UknjmJMkca1ZRITv6jFqtXpsOtcnAU8v2/2jDNIYsQHh4+7r7vJ6dk3n3Yq7FXzz
rWu3OpalcXlySJZXJ4H9kdAg/wBUbZw+ecskzKXMvoGn08ccBGPIJc1375WIN/CpNd++SEGXCptd
e+SEE8KZ2HlrzRqNDZ6ZcSIekhQoh/2b8V/HMnHo8kuUS42XWYcf1TDIrD8ofNtzQ3T29kvcO5kf
7owy/wDDZmQ7JyHnQdfl7dwR+m5fjzZLp35K6REQ2oX890RuUiCwqfY19RvxGZuPsiA+okuuy+0G
Q/RED7f1Mz0byzoWipx02zjgYijS7tIw93arH782GLTwx/SKdRqNZlzfXK/u+SKGp6ab02Au4TfB
eRtBIvq8fH068qfRlnHG6vdq8GfDxUeHvrb5uvtT03T40kv7uG0jkYIjzyLErMeiguRU+2MpAcyu
PFOZqIMvcLROSa3Yq7FXMoYFWFVOxB6EYqkd95F8lX7F7zQdPnkO5ke2iL/8Fx5YKDmY+0NRD6ck
x/nFCR/lh+Xcb8l8uaeTXl8VvGwr8mBFPbHhDYe1tUf8pP5lPbDStM06L0tPs4LOL/fdvGkS/cgA
wuHkzTmbkTI+ZtFYtbsVSbVvJnlLWLoXeqaPZ3t0AB688EbuQOgLEVIHvgIDlYddnxDhhOUR5Epn
aWdnZW6W1nBHbW8YpHDCixoo9lUADC485ymbkbPmqSRxyxtHIoeNwVdGAKlSKEEHqDigEg2EBpPl
vy9o7SNpOmWuntN/etbQxxFt60YoBUYAG7NqsuWuOUpV3klMJI0kRkkUOjCjKwqCD2IOFpBI3CSN
5E8jvL6zeXtMaYnl6hs7ctUd68K4KDljtDUAV4k6/rH9acwwwwRLDDGsUSDikaAKqgdgBsMLiSkS
bPNfihKIfKHlSHVDqsOj2cepE8vriwRiXkercgK8vfrgoOVLW5jDgM5cHdZpN8LiuxV2KuxVi2vf
lt5Y1id7mSOS1uZDWSW2YJyPiVYMtfE0zBzdn4shuqPk7PTdrZsQ4QeIeaSj8lNAqOV/dle4BiB/
4gcoHZGPvLmf6IMv82P2/rR9n+UXky3IMsU12R/v6Uj8I/Ty2HZmEdLcfJ25qJciI+4frtkmneXd
C02n1Cwgt2H7aRqH+l6cj9+ZcMEIfSAHAy6rLk+qRPxTDLXHdirTMqqWYhVUVZjsAB3OKgW8l/MH
82j+80vy7LQCqz6ivfsVh/5r+7xzT6vtC/TD5/qep7M7E5TzD3R/X+r5sd/Jq0ub3zwt5VmS0hll
nkNTUyD0wCfEl6/RlPZ8Ccl9zndvTENNw/ziB+lK/wA5fMUuq+b7i2Dk2mmf6NClduY/vWp489vk
BlmrycWQjoG/sLSjFgB/inv+r7HqH5JeZZNX8oC0uJC91pT/AFYkmrGEjlCT8hVB/q5sNJk4oV3P
O9v6UYs/EPpnv8ev6/izrULNb2wubN3aNLmJ4WdDRlEilSVI6EV2zKdG+EdQ1XzTYX9zYXOpXa3F
pK8Ey+vLs8bFGH2vEYHIoPoL/nFrzPd6hpWt6Te3MlxNazx3UJmdnbhMpRgCxJopiG3vha8ge54t
b59/5yl83XlpPomhWF1Jby8ZL669J2RiCfShqVI22kxbMYeZ/lL541fTPzE0Sa81C4ls5rgWtxHL
K7pwuAYuTBifss4b6MDOQ2fZ2FoYz+Zmu/oLyDruqK3CWG0kSBwaUmmHpRH/AJGOuKYjd8Uf4j8w
/wDV0u/+R8v/ADVgcin1d/zjrYX0P5dRahfzSz3GqXEtwrzOzsIlPooo5E0H7st9OFpnzfOP5ha/
rsfn7zLHHqV0kceq3qoizSBVVbhwAAG2AGBtiNmP/wCI/MP/AFdLv/kfL/zVimnf4j8w/wDV0u/+
R8v/ADVitO/xH5h/6ul3/wAj5f8AmrFaej/84+azrF1+aOmw3N9cTwtFclo5JXdTSByKhiRiwmNn
0/5xkki8o63LE5SRNPumR1JDKwhYggjoRhahzfDY8z+ZQhjGrXnAmpT6xLSo705YHIpafMXmAgg6
ndkHYgzyf81YrSjHq2qxOHivZ0cdGWVwfvBxWmQeX/zU/MDQZ0lsNcuiimptriRp4CO4McpZd/EU
OKDEF9PflD+b1j57sXt7hFtPMFovK7tFrwdKgetDUk8akAgmqn6DhaZRp6LixdirsVdirsVWTzw2
8LzzusUMSl5JHNFVRuSScBIAssoxMjQ3JeH/AJifmbPrDSabpTtFpI2kk3V5/n3Cf5Pfv4ZoNZrT
k9Mfp+97HsvsgYvXPef3ftebTS5hxi9AA9//ACs8up5a8oSaler6d1ep9cuieqQopMaH5LVj7nN/
pMXh47PXd4ftjVfmM/BH6Y+ke/q+etTupLu7uLqXeS4keVz/AJTsWP68092be5xQEYiI6Bnn5Bau
1r5xn05mpFqNswC+MsJ9RT9Cc82OilUq73Se0mDiwCfWMvsO36n0Nm0eGfG//OQHl/8AQ/5nakyr
xg1MJfw+/rCkp+mZHwN8Dsjf+cb9d/Rv5mW9qzcYtVt5rRq9OQHrJ9PKLiPniiY2fXeFpfFX51+Y
f07+ZetXCNygtZfqVv4BbYem1PZnDN9OBviNmDqzKwZSVZTVWGxBHcYsn3l5I8wL5h8o6RrQILXt
rHJNToJePGVf9jIGGFxyKLzP/nKXXfqfkqx0lGpJql2C6+MNsvNv+SjR4s8Y3fLkEEs88cEKl5pW
CRoOrMxoAPmcDa++fLejxaJ5f03SIqcNPtorcEdCY0Clv9kRXC45L4k/Mb/yYXmj/trX3/US+Bvj
yZr+Qf5c+WvOt3rMWuJK6WUcDQejIY6GRnDVp1+yMWM5U9j/AOhafyv/AN8Xf/SS39MLDjLv+haf
yv8A98Xf/SS39MV4ynHlP8k/I3lbW4da0mK4W+gV1jMkxdaSKUaqkeBxQZEsj86/8obr3/bOu/8A
kw+KBzfBWByH0B+TH5MeSPNnkiLWNYiuHvXuJoiYpii8UIC/CBi1ykQWey/842/lY8PprZ3MT0p6
yXMhfpStGLL/AMLhY8ZfPv5vflk/kLzBFaRTtdaZexmaxnkAElFNHjkpQclqNwKGuBsjK0N+T2s3
Ok/mX5engYj6xeR2cqjo0d23oMD8udfmMUyGz7cwuO7FXYq7FVk88NvC887rFDEpeSRzRVUbkknA
SALLKMTI0NyXhX5jfmLNrszWFgzRaPE3yadh+03+T/Kv0nfpz2s1hynhj9H3vadldlDAOKW+Q/Y8
9mlzEjF3gDJvyv8AKh8yeaIhMnLTbClxeVHwtQ/BGf8AXYfcDmfo8HHLyDre19b4GE19cth+v4Pa
/wAztRNh5G1SRTR5oxboPH1mEbf8Kxza6yfDiLyPZGLj1MB3G/lu+YJu+aKL6IE3/LrUPqHn7Q7i
vEG7SFjWlBP+5NT8pMzdOamHE7Ux8emyD+jfy3/Q+sc3L5o8A/5yv0DnYaJ5gjXeGSSxuG9pB6sX
3GN/vxbMZeB+WdYfRfMWmaula2F1Dc0HcRSBiPpApgbSH3F5r8xQaJ5S1PXlZWS0tJLiE/su3CsQ
/wBkxAwuOBu+DJJHkkaSRizuSzsdySdyTgchoqymhBBoDv4EVGKvqX/nFvzF9d8m3uiyNWXSLnlG
tekN0C67f8ZFkwtWQbvP/wDnKPXfrnnm00pGrHpVovNfCa4PqN/yTEeBljGzFPyQ0D9N/mbosLLy
gtJTfTnsBbD1Er7GQKPpxTM7PtPC0PhP8xv/ACYXmj/trX3/AFEvgciPJ6b/AM4xeYdA0a+8wNrG
p2mmrNFbCFrueOAOVaTkF9RlrSu9MWGQPfv+Vjfl7/1NGk/9J1t/zXha+Eu/5WN+Xv8A1NGk/wDS
dbf814rwlOdP1LTtSs473TrqG9s5a+lc28iyxNxYq3F0JU0YEHfrihLvOv8Ayhuvf9s67/5MPikc
3wVgch9Pf84/+efJ2kfl9BYarrVnY3n1qdjBcTJEwDsOJPIigPjhapg29IuvzR/Li2j5yeZtNZaE
0iuopjt/kxs5xYcJfNX59fmZpXnXXbKLR+T6XpSSJFcupT1ZJipdlRgGC0jUDlvgboRpKPyU8u3e
ufmToqQKfS0+4TULmQdEjtWEgr/rOFX6cVkdn2phaHYq7FXMyqpZiAoFSTsABioDw38zPzBfWbht
M056aTA3xOp/v3H7R/yAfsj6fCnPa7WeIeGP0j7Xs+yOzPBHHP6z9n7XnMsuYUYu+AQcjszBVBZm
NFUbkk+GXxi2DZ9M/lp5QHlnyzDbzKBqN1Se+buHYbR/8812+dT3zf6bDwRrq+e9q638xmJH0jYf
r+LHvz4vTH5csbMGhuLrm3usSHb73GY3aUqgB5ud7OY7yyl3R+94HN3zVRe1CGhuXtbuC6T7cEiy
r23Rgw/VmTA0WcocUSD1fZ8ciyRrIu6uAyn2IqM3r5ORRphf50aB+nPy01y2VeU9vB9cg8Q1qRKa
e7IrL9OKYnd8T4G97x+YHn763/zj95XsllrdarwtbkV+Ix6aeLk96mRIz9OLWB6ni2g6Rcazrdhp
Nt/f39xFbRnrQyuFqfYVqcWwl6L/AM5E+T7by95ztpLGL0tPv7KH0VGyh7ZRbso+SIhPzxYQNhU/
5xq8w/oz8xV092pBrFvJb0PT1Yx60Z+fwMo/1sVmNmEfmDrx1/ztrWrhuUd1dyGBv+KUPCL/AJJq
uLICg9j/AOcT9ArNrnmCRfsLHYW70/mPqzCv+xjxYZC+isLU+E/zG/8AJheaP+2tff8AUS+ByI8m
O4pdirsVfZf/ADj7/wCSh0H/AKO/+o2bC0T5sq86/wDKG69/2zrv/kw+KBzfBWByHYq7FXYq+ov+
ca9e8hPo0mj6VbtZ+ZOPral65DyXAXbnHIAv7teWyUHGvfdiWqYL2zFrdirsVeZfm/50a0g/w/ZP
SedQ19Ip3WNukfzfqfb55qe0tTQ8OPXm9H2HoOI+LLkOXv7/AIPFppc08YvXAIKaXLoxbAHo/wCS
nkZ9U1QeYr6P/cfYP/oisNpbgdGHisfX/W+RzZ6LBZ4jyDz/AG/2h4cPCifVLn5D9v3PfM2rxTxn
8/bnlf6Ta1/uoZZaf8ZGVf8AmXmn7Tl6oh632ah6Zy7yPs/teOzd8wYvUhAT5kRbQ+wvKdx9Y8q6
NcVr61jbSV6fahU/xzeQPpD5brI8OaY7pS+9M5Yo5YnikUPHIpV0O4KsKEHJOM+B/NGiyaH5k1PR
5K8rC6ltwT3WNyFb/ZLQ4HJBQct9dy2kFpJIWt7UuYIz0UykF6fMqMVeqf8AOM/lz9J/mCdTkTlb
6NbvOGpVfWl/dRg/7FnYf6uLDIdnqP8Azk95c/SPkWDV41rNo1yrsaVpBcUif/h/TP0YWGM7vlqw
v7vT72C9s5DDdWziSGVeqspqDgbkPir7M/IXQP0P+WGkhl4z6gGv5vf1zWM/8iQmFomd3oWLF8J/
mN/5MLzR/wBta+/6iXwORHk9N/5xi8vaBrN95gXWNMtNSWGK2MK3cEc4Qs0nIr6itStN6YsMhe/f
8q5/L3/qV9J/6Qbb/mjC18Rd/wAq5/L3/qV9J/6Qbb/mjFeIpzp+m6dptnHZadaw2VnFX0ra3jWK
JeTFm4ogCirEk7dcUJd51/5Q3Xv+2dd/8mHxSOb4KwOQ+o/+cfPJ/lLVfy5hu9U0Swv7o3U6m4ub
WGaQqrCg5urNQYWqZNvTJ/y/8iTxiOby5pjqAQoNnBsDtt8G30YsLL54/wCchvys0Hyq2n61oMJt
bO+keC5swxaNJQvNGj5EkBgGqK0FNsDbCVvM/I+u3Og+b9I1a2Yh7W6jZgP2o2bjInyZGK4siLD7
ywuO7FVO5nWC3lnfdYkZ2A60UVOCRoWyhHiIHe+WNZ1W51LUbm/uW5T3MjSOewLHoPYdBnKSkZyM
jzL6VgwjHARHIBKJpcnGLkAMl8gfl5qfm3UAxDW+jwt/pV5TrT/dcVern/hep7A52n0xmfJ1/aXa
cNNHvyHkP0ny+99K6dp9lptjBY2UQgtLdBHDEvQKPn+JzdRiAKD5/lyyySMpG5FEYWt4V+e0nLzX
aoGqEsY6jwJllP6qZo+0j+8Hu/W9p7OD9wf65+4PLJu+YsXoggJ8yItofXfkX/lCPL3/AGzLP/qH
TN3j+ke58w7Q/wAYyf15feU8ybhvkr/nJfQP0d+YzX6LSHV7aK45Dp6sf7lx86Rqx+eBugdnk2LN
9W/84w+XP0f5En1eRaTazcs6tShMFvWJB/wfqH6cLTkO707zPokOu+XdS0aWgTULaW35HorOpCt/
sWocWIL4Jubea2uJbedSk0LtHKh6qyGjA/IjA5Cvo2mT6rq9lplvvPfTxW8Xf4pXCD9eKl9+WVpB
ZWcFnbrwt7aNIYU8EjUKo+4YXGVsVfCf5jf+TC80f9ta+/6iXwORHkz7/nHbz35U8pX2tP5hvhYr
ex26WzGKaUMUZ+X90j8ach1xYzBL3P8A5Xn+VH/Uww/8ip/+qeFr4C7/AJXn+VH/AFMMP/Iqf/qn
ivAUx0D80/IPmDU49L0fV47u/lDNHAqSqSEUs27oo2A8cUGJCY+df+UN17/tnXf/ACYfFRzfBWBy
H0b+R35r+QPLXkSDStb1UWl/9ZmkMJguJKK7DiS8cboPvwtU4kl6JL+e/wCU8aFz5gjIHZYblj9A
EROLHgLwP89PzasfO95ZWOjpImj6cXcSyjg00z0HLhvRVUUWu+5wNkI0wDylo9xrPmfStKt15S3l
1FF0rRS45MfZVqT7YsyX3xhcZ2KtMqspVgCpFCDuCDioLzPVvyJ0S6uXlsb+ayick+gVWVVr2Uko
afOua2XZsL2NPRYfaLJEVKIke/k3pH5DeWbWcTajcz6jxNRCaQxH/WC1c/8ABZZj0EBz3Rn9o80h
UAIfafx8Ho9paWtnbR2tpCkFtEOMUMahUUDsANszQABQdBOcpEmRslVwsXYq8L/PeMjzTZvSitYo
K+JEstfwIzSdpD94Pd+t7P2cP7gj+n+gPK5upzEi9GEBPmRFtD7C8pW5tvKujWxrWCxtozXr8EKr
2+WbyAqIfLdbLizTPfKX3prknGeI/wDOVOg/WvKul60i1k026MMhHaK5Xcn5PEo+nFsxnd8xQwyz
TJDEpeWVgkaDqWY0AHzOBtfe/lbQ4tB8t6Zo0VONhbRQFh+0yKA7f7JqnC45KaYofGf58+Xf0J+Z
uqqi8YNRK6hD7/WKmQ/8jg+BvgdkX/zjtoJ1X8zbKZl5Q6VFLeyV6VUenH9IklU/Riszs+wcLQ7F
Xwn+Y3/kwvNH/bWvv+ol8DkR5MdxS7FXYq9M/wCcdP8Aya+mf8Ybr/kw+LGfJ9U+df8AlDde/wC2
dd/8mHwtI5vgrA5DsVdiqZ6J5a8wa7cC30fTri/lJApBGzgV7swHFR7k0xUl9Nfkl+SL+UZP0/rx
STX3Qpb26EOlqjij/GNmkYfCSNgKgVrhaZzt7DiwdirsVdirsVdirsVdiryP8/NMcxaXqirVEMlt
K3gWo8f6mzVdpw5Seo9m8284e4/r/Q8Um6nNdF64N6JpEusa9YaXECWvJ44jTsrMOTf7FanMrFGy
Ax1GYYscpn+EW+xVVVUKooqigA6ADN4+Vk23irsVdirsVdirsVdirsVdirsVdirsVdirsVdirsVW
TW8EwAmjWQDcB1DU+/FVL9G6d/yyw/8AItf6YqiAAAABQDYAYq7FXYq7FXYq7FXYq7FXYq7FUv1/
Q7HXdJuNLvlJguFoWXZlYGqspPdTleXGJx4S36bUSwzE48w8N1f8jPOMFyy2LQX1uT8EocRNx8WR
6U+gnNUdBMHbd7HD7Q6cj1XE/NnH5X/lL/hm5Or6tIk+rlSkEcdTHArCjHkQKuRtXoB41zO0+m4N
zzdP2v2z+YHhw2h18/2PSsy3n3Yq7FXYq7FXYq7FXYq7FXYq7FXYq7FXnH5y6Z+ZOsWlhpPlCNkt
Z2Y6rdxzxwMqgqESrOj8d2LcAa9PYwlfR33YeXSYpSnn5j6RRP6K91vIvM3k/wAyfk3f6RrWma4L
r63IRPCqNArmIAtHJHzkEkZViOXbwBpkCOF6bSa3F2pGeOcKr48+oNCizL89PMHmHUfMHlzyZpFy
9jDrSRSTMGKc2uZfSjWQrvwTiSR399slM9HVez+mxQxZNRMcRx39gs15li15oPmT8nPOWhGz1g32
n6pJSeEI0KSKrokqPEXkWvFxxeta4K4S7GGoxdqYMnFDhlAbda51vQ+Ies/m5N55u00vyz5SjKTa
39YF/qAJX6vbw+mGq/7Af1ev2tqLucnK+jzfY0dPHizZ+WOqj3k38+X62C/84roUk81IdypsRX5G
5yON3HtebGL/ADv96yT8yfyv8++dfMfE63BYeVEVFitUaZ5KhQWeSALHG7ep0rJsKYZRJcDsvtbT
aTF9Blm79vsO5G3kwvyTHr35efm7aeTYdW/SmlXtFuIVqqD1EZg3pFpBFIjCpodx89ojY07XXnHr
dCdQYcE48v7drD6My14V2KuxV2KuxV2KuxV2KuxV2KuxV2KuxV2KuxV2KuxV2KuxV2KuxV2KuxV2
KpZ5l8yaV5b0W51jVJfStLZamm7Ox2WNB3ZjsP6YCacjS6WefIMcBcj+LeL+S/Lur/mp5pPnbzTG
Y/L1o/HSdNO8b8G2QV+0ikfvG/bbbpsIAWbL1eu1UOzsP5fD/ey+qX4693cFT82WVfz28kFiAP8A
Qdz/AMx0mMvqDHsb/jNz/wCd/uA7/nJBl/xH5MWo5CWYkd6GWCn6sZ9F9l/7rN7h90nu+WPHPBf+
cXP96PNv+vZfrucrxvZ+1vLF/nf717Lc6voV9PdaBHqlr+lHidJLJZo2uEDJuTCG57Bq9MnbysMO
SAGUxlwXzo18+T5/8s6DP+V/5y6Vo80kGqxaoiRx3XpcZY1uWaJWUEuY2DrQ7mq/hWBRe11eoHaG
gnkFw4Ol7bb/AB/W+lcteBdirsVdirsVdirsVdirsVdirsVdirsVdirsVdirsVdirsVdirsVdirs
Vdiry386Pyx81+eJtMXSb22gs7JZDLBdSSoGlcijhY45QaKKVOQlEl6LsLtbDpBLjjIylXIDl8SG
HWv5MfnnaW8dta+b0t7aFQkMEWo6giIqigVVWIAAeAyPCXaz7d7OkSZYbJ/oQ/Wz380Pyk/xpY6f
PDeCz13To+Edy3JkkBoSrkfEKMKqw99vCUo26Xsntn8rKQMeLHLp3MY8q/kN5kfzJaa3541waqbB
leCBZZ7kuYzyRXlnCFUDb8QDXAId7sdZ7Q4hiOPTw4OLnsB9g6+b23LHkXmf5M/llr3kiXXH1We1
nGptbmD6q8j8fRM3Ln6kcVP70UpXIRjT0HbnauPViHAJDgu7rrXcT3IL8yvyU1DXfMQ80eWNUGla
4wX1ubSRKzooQSJLCC8bcBQ0U19t8ZQvcNvZfb0cOLwc0ePH8D8KOxQ/kD8jtW07zNF5n836uNV1
O2PO3RHlmBkA4q8k0wV24jovHr3xEOpbO0u34ZMJw4IcEDz5D5AbPYcm8s7FXYq7FXYq7FXYq7FX
Yq7FXYq7FXYq7FXYq7FXYq7FXYq7FXYq7FXYq7FXYq7FXYq7FXYq7FXYq7FX/9k=1FalseFalse1032.103516709.460938PixelsDIN-BoldDINBoldTrueTypeVersion 001.000Falsedin-bold-webfont.ttfCyanMagentaYellowBlackDefault Swatch Group0image/svg+xmlLogoSudWebproof:pdfxmp.did:F77F117407206811BB8EFA97569BA8B7xmp.iid:F77F117407206811BB8EFA97569BA8B7uuid:6214b174-7758-fb42-b2f1-9bf8022ab289uuid:2c105a84-58c6-d44e-b39a-56b6e4cba521uuid:6214b174-7758-fb42-b2f1-9bf8022ab289uuid:6214b174-7758-fb42-b2f1-9bf8022ab289proof:pdfsavedxmp.iid:F77F117407206811BB8EFA97569BA8B72011-02-07T09:53:35+01:00Adobe Illustrator CS4/Adobe PDF library 9.00</metadata>

 <g>
  <title>background</title>
  <rect fill="none" id="canvas_background" height="402" width="582" y="-1" x="-1"/>
 </g>
 <g>
  <title>Layer 1</title>
  <g id="svg_1">
   <path id="svg_2" d="m897.958984,294.709991c3.205994,7.210999 -3.893005,14.110992 -8.364014,19.714996c-8.460999,10.601013 -22.47699,22.921997 -37.039001,10.752991c-9.580017,-8.004974 -15.365967,-23.425995 -19.714966,-36.441986c-11.608032,20.556 -30.598999,44.397003 -63.325012,40.625c-16.692017,-1.925995 -29.031006,-9.645996 -36.44104,-22.104004c-6.023987,7.32901 -16.813965,25.829987 -32.856995,22.104004c-8.854004,-2.058014 -12.794006,-16.436005 -14.337952,-26.882996c-1.980042,-13.412994 -1.705017,-25.847992 -1.792053,-39.429016c-8.552979,22.154022 -15.182983,44.581024 -32.259949,58.546021c-7.981995,6.526978 -27.397034,13.854004 -38.832031,4.182983c-2.713013,-2.294006 -6.58197,-8.016998 -8.362976,-11.947998c-12.320007,-27.187988 -6.515015,-80.016998 0.596985,-112.313004c1.591003,-7.218994 4.192017,-27.875 11.947998,-29.870987c5.781982,-1.487 12.15802,1.534988 13.143982,5.973999c0.657043,2.968002 -1.115967,7.666992 -2.390991,11.947998c-6.690002,22.492996 -13.740967,56.060989 -13.740967,82.441986c0,13.972015 2.204956,37.542999 15.532959,38.234009c4.993042,0.259003 9.384033,-3.287994 11.947998,-5.376007c7.890991,-6.427002 13.551025,-16.699982 18.52002,-26.884003c11.72998,-24.044983 20.642029,-54.689987 24.494019,-89.013992c0.757996,-6.746002 1.265991,-16.485001 3.583984,-18.519989c4.232971,-3.713013 14.622009,-2.021011 16.729004,2.987c1.531982,3.644989 -0.244019,10.549988 -1.194031,16.727997c-4.322998,28.098999 -5.074951,58.76799 -3.584961,90.805984c0.497986,10.694 2.341003,28.723022 8.364014,29.870026c8.205994,1.563995 14.204956,-12.225006 18.519958,-15.532013c-11.89801,-32.002014 -2.018982,-69.011002 14.937012,-93.195999c15.486023,-22.093002 39.161011,-36.709 75.272034,-31.065002c0.237,-29.304993 6.053955,-61.385002 17.324951,-83.637001c3.122009,-6.164001 10.478027,-20.747002 16.728027,-20.909996c13.690002,-0.357002 16.416016,26.914001 17.922974,43.014c5.138,54.915001 -6.04895,104.195992 -20.909973,144.573006c-1.442017,3.918991 -4.073975,7.934982 -4.182007,10.753006c-0.145996,3.794983 2.625,9.084991 4.182007,13.740997c3.260986,9.743988 10.111023,31.830994 20.312012,32.259979c5.76001,0.242004 10.445984,-5.535004 14.338013,-8.960999c4.33197,-3.819977 7.825989,-8.850983 14.930969,-7.17099zm-58.545959,-168.468994c-2.380981,12.184006 -4.960022,26.085999 -5.377014,38.832001c-0.370972,11.302002 1.170044,23.106995 1.791992,34.649002c0.611023,11.367004 0.309998,22.891006 2.986023,33.455002c10.794006,-39.643997 21.85498,-94.275009 11.35199,-142.182999c-4.471008,10.275993 -8.127991,21.805 -10.752991,35.246994zm-42.416016,61.533005c-31.276978,2.938995 -54.38501,37.401993 -56.754028,70.494003c-1.618958,22.589996 5.776001,42.299988 20.312012,49.584015c20.27301,10.162994 41.913025,-4.348022 50.778992,-15.53302c3.79303,-4.785004 13.927002,-19.671997 14.338013,-25.687988c0.329041,-4.806 -2.545959,-11.428009 -3.583984,-17.325012c-3.432983,-19.492004 -4.408997,-38.164993 -4.778992,-59.740997c-8.240051,-1.098999 -12.317993,-2.542007 -20.312012,-1.791z" fill="#C01432"/>
   <path id="svg_3" d="m477.381989,92.786003c32.348999,-2.392006 65.404022,9.228996 86.027008,25.688995c5.667969,4.523003 18.351013,12.958 14.338013,20.312004c-4.017029,7.360992 -13.842041,1.173996 -16.729004,-1.195007c-5.423035,-4.452988 -9.895996,-8.410995 -13.739014,-10.752998c-18.130981,-11.049995 -49.419006,-20.358994 -81.248016,-14.337997c-12.746979,2.412003 -25.793976,6.490997 -36.441986,13.740997c-8.020996,5.461006 -20.114014,16.93 -16.727997,32.260002c3.381989,15.309006 28.252991,18.893005 43.609985,23.298996c34.371002,9.860001 69.894989,17.783005 98.573029,34.649002c14.691956,8.641006 27.914001,18.303009 33.454956,32.858002c7.068054,18.564987 -2.587952,38.820999 -11.350952,48.987015c-19.147034,22.21698 -59.362,36.125 -102.755035,31.662994c-20.549988,-2.113007 -37.735992,-6.313995 -54.362976,-13.143005c-7.729004,-3.174011 -14.520996,-6.035004 -22.104004,-11.947998c-5.537994,-4.319 -14.282013,-13.925018 -10.156006,-20.910004c2.459991,-4.164001 9.221008,-3.984009 14.338013,-2.390015c5.778992,1.802002 8.313995,5.003021 11.350983,7.169006c8.162994,5.826019 16.542999,9.878021 24.494019,13.143005c16.119995,6.619995 39.707977,13.036987 62.727997,10.752991c19.967987,-1.978973 39.894012,-9.779999 51.376984,-18.519989c6.64801,-5.059998 17.859009,-14.779999 15.531982,-31.065002c-2.096985,-14.677002 -21.42395,-25.365997 -34.647949,-31.662994c-32.025024,-15.246002 -63.005035,-20.393005 -99.769012,-31.66301c-17.265015,-5.291992 -33.420013,-12.166 -40.026001,-25.687988c-9.289001,-19.012009 -0.44101,-40.757004 9.55899,-51.377007c15.440002,-16.396996 46.032013,-27.751999 74.675995,-29.869995z" fill="#C01432"/>
   <linearGradient y2="0.47512" x2="0.787932" y1="0.742002" x1="-3.570045" id="SVGID_1_">
    <stop stop-color="#CD012F" offset="0"/>
    <stop stop-color="#F9B410" offset="1"/>
   </linearGradient>
   <path id="svg_4" d="m279.041992,18.707001c11.898987,-3.558001 21.987,12.244999 26.882996,20.312c15.027008,24.761997 29.125,60.766003 32.858002,92.598003c2.94101,25.087997 -0.031006,53.25 -5.377014,76.468002c-2.340973,10.166992 -5.019989,20.394989 -9.55899,32.259995c-3.138,8.201004 -9.160004,25.705994 -15.53299,26.286011c-6.473999,0.588989 -13.481018,-10.875015 -17.325012,-18.52002c-8.975006,-17.85199 -11.53299,-34.29599 -14.936981,-56.156998c-6.275024,-40.310989 -9.88501,-86.453995 -8.960999,-133.221996c0.330994,-16.577 0.186005,-36.506998 11.950989,-40.024998z" fill="url(#SVGID_1_)"/>
   <linearGradient y2="-1.223367" x2="1.24506" y1="0.753429" x1="0.406226" id="SVGID_2_">
    <stop stop-color="#C01432" offset="0"/>
    <stop stop-color="#F9B410" offset="0.6566"/>
   </linearGradient>
   <path id="svg_5" d="m101.014,128.033005c14.931999,-0.667007 24.192001,6.427002 35.247993,14.338013c38.462006,27.522995 67.167999,58.804993 101.560013,93.195984c5.901001,5.901001 11.557999,12.645996 18.520004,20.311996c5.174988,5.697998 17.778992,15.087006 16.727997,22.104004c-1.833008,12.234985 -27.270004,2.010986 -31.66301,0.597992c-57.067993,-18.350983 -100.464005,-43.304001 -139.794006,-79.455994c-7.007004,-6.440994 -14.540001,-13.828995 -21.507004,-22.701996c-6.004997,-7.64801 -15.649994,-22.166 -12.544998,-33.455002c3.318008,-12.070999 20.432007,-14.352997 33.453011,-14.934998z" fill="url(#SVGID_2_)"/>
   <linearGradient y2="-0.573893" x2="0.438365" y1="1.92184" x1="0.581042" id="SVGID_3_">
    <stop stop-color="#C01432" offset="0"/>
    <stop stop-color="#F9B410" offset="1"/>
   </linearGradient>
   <path id="svg_6" d="m119.533997,297.100006c45.830002,-2.182007 88.875,3.597015 129.039993,11.947998c7.632004,1.587006 12.956009,2.029999 14.337997,5.377014c3.718018,9.005981 -14.181992,15.630981 -20.908997,17.921997c-11.229004,3.824005 -21.630005,5.967987 -31.662994,8.363983c-23.060013,5.51001 -42.200012,9.062012 -65.118011,14.338013c-20.261993,4.665985 -42.879997,11.06601 -66.909996,13.144012c-17.34,1.498993 -38.371998,1.39798 -50.181999,-7.169006c-9.788,-7.10202 -9.289999,-14.69101 -2.987,-25.688019c9.129002,-15.929993 24.492001,-24.964996 44.806,-31.065002c15.118011,-4.541992 32.628014,-6.363983 49.585007,-7.17099z" fill="url(#SVGID_3_)"/>
   <linearGradient y2="0.503239" x2="-2.247398" y1="0.498835" x1="1.49407" id="SVGID_4_">
    <stop stop-color="#C01432" offset="0"/>
    <stop stop-color="#F9B410" offset="1"/>
   </linearGradient>
   <path id="svg_7" d="m321.458008,353.256012c8.808014,-0.998016 14.806,14.484985 18.519989,25.091003c8.761017,25.019989 10.906006,40.372009 15.53302,68.701996c5.820007,35.639984 10.145996,76.570984 5.376007,117.093018c-2.904022,24.684998 -9.279022,48.826965 -26.286011,57.352966c-13.477997,6.756042 -32.476013,0.977051 -40.623993,-8.961975c-11.795013,-14.38501 -14.657013,-38.591003 -15.532013,-63.921997c-1.169006,-33.812012 5.080994,-74.289001 11.351013,-106.938019c2.001984,-10.423981 4.773987,-21.701996 7.168976,-32.259979c3.466003,-15.287994 8.506012,-48.914001 22.701019,-56.156006c0.395996,-0.203033 1.342987,0.049988 1.791992,-0.001007z" fill="url(#SVGID_4_)"/>
   <linearGradient y2="-0.061485" x2="-0.21344" y1="0.828892" x1="0.959733" id="SVGID_5_">
    <stop stop-color="#C01432" offset="0"/>
    <stop stop-color="#F9B410" offset="1"/>
   </linearGradient>
   <path id="svg_8" d="m286.80899,353.854004c5.454987,11.384003 -0.757996,24.615997 -4.778992,34.649994c-4.09201,10.212006 -10.112,20.393005 -14.934998,29.27301c-10.03302,18.473999 -20.096008,37.612 -31.065018,56.753998c-10.009995,17.46701 -22.155991,35.884003 -37.039993,51.377991c-14.166,14.746033 -31.899994,29.765991 -57.947998,29.869019c-12.520996,0.050964 -25.825005,-3.304993 -28.676003,-11.947021c-3.546997,-10.755981 4.017998,-25.562988 8.960999,-34.052979c16.241997,-27.896027 38.575996,-51.720001 59.741005,-72.88501c22.968002,-22.968018 43.918991,-42.738007 69.298996,-63.324005c9.177994,-7.445007 17.935989,-15.666992 28.67601,-19.716003c1.686005,-0.63501 4.782013,-1.059998 7.765991,0.001007z" fill="url(#SVGID_5_)"/>
   <path id="svg_9" d="m430.783997,359.230011c10.634003,44.326996 21.824005,88.100006 32.259979,132.625c13.656036,-43.496002 25.832031,-88.475006 38.832031,-132.625c10.555023,0 21.108002,0 31.662994,0c12.643005,44.309998 25.672974,88.230988 38.234009,132.625c11.48999,-43.671997 22.343994,-87.979004 32.856995,-132.625c14.736023,0 29.471985,0 44.208008,0c-18.905029,70.903992 -38.38501,141.234985 -56.754028,212.678009c-11.947998,0 -23.895996,0 -35.844971,0c-12.169006,-43.19104 -25.877014,-84.84201 -38.234009,-127.846008c-13.481018,42.075989 -26.325012,84.792969 -38.832001,127.846008c-11.948029,0 -23.896027,0 -35.845001,0c-18.272003,-70.742004 -37.151001,-140.876007 -56.156006,-210.886017c0,-0.597992 0,-1.195007 0,-1.791992c14.539001,0 29.075989,0 43.612,0z" fill="#402F33"/>
   <path id="svg_10" d="m672.138,359.230011c46.599976,0 93.195007,0 139.794006,0c0,12.346985 0,24.69101 0,37.037994c-32.856018,0 -65.715027,0 -98.570984,0c0,16.32901 0,32.65799 0,48.988007c26.883972,1.394989 56.354004,0.199005 84.232971,0.596985c0,12.547028 0,25.09201 0,37.638c-28.078003,0 -56.156006,0 -84.232971,0c0,16.927002 0,33.854034 0,50.779999c31.661011,1.394043 65.912964,0.197998 98.570984,0.598022c0,12.346008 0,24.690979 0,37.039001c-46.796997,0 -93.594971,0 -140.390991,0c0,-70.296021 0,-140.589996 0,-210.886017c-0.052002,-0.847015 -0.100037,-1.69101 0.596985,-1.791992z" fill="#402F33"/>
   <path id="svg_11" d="m850.166016,359.230011c32.343018,1.652008 66.052002,-2.229004 94.987976,0c35.833008,2.760986 58.722046,27.514008 56.156006,63.324005c-1.365967,19.057983 -11.75,31.85199 -25.687988,40.026001c7.30603,4.84198 13.643005,8.389008 18.520996,14.936005c13.349976,17.922974 12.963013,45.212006 3.583984,63.923981c-7.805969,15.570007 -25.490967,28.39801 -48.987,30.468018c-31.513,2.771973 -66.967957,-2.078003 -99.169983,0c0,-70.29599 0,-140.589996 0,-210.886017c-0.052002,-0.847015 -0.101013,-1.69101 0.596008,-1.791992zm41.221985,38.832001c0,15.730011 0,31.463989 0,47.195007c25.85199,-1.175995 58.838989,5.559998 66.312012,-14.338013c4.612,-12.285004 0.104004,-26.549988 -10.754028,-31.662994c-13.783997,-6.492004 -35.684998,-1.184998 -54.961975,-2.987c-0.695984,0.100983 -0.64801,0.944977 -0.596008,1.792999zm0,86.625977c0,16.727997 0,33.453003 0,50.182983c22.403992,-1.919983 51.492004,5.030029 63.922974,-7.169983c6.121033,-6.008972 9.541016,-18.519012 5.377014,-29.869995c-7.635986,-20.813019 -40.451965,-13.833008 -68.701965,-14.937012c-0.697998,0.100006 -0.650024,0.945007 -0.598022,1.794006z" fill="#402F33"/>
  </g>
 </g>
</svg>